<svg width="34" height="34" viewBox="0 0 34 34" fill="none" xmlns="http://www.w3.org/2000/svg">
<path d="M6.74622 11.8857C6.70902 11.8857 6.67217 11.893 6.6378 11.9073C6.60342 11.9215 6.57219 11.9424 6.54588 11.9687C6.51957 11.995 6.4987 12.0262 6.48446 12.0606C6.47022 12.095 6.46289 12.1318 6.46289 12.169V15.5336C6.46289 15.6894 6.59039 15.8169 6.74622 15.8169H10.6477C11.1692 15.8169 11.6694 15.6098 12.0381 15.241C12.4069 14.8723 12.6141 14.3721 12.6141 13.8506C12.6141 13.3291 12.4069 12.829 12.0381 12.4602C11.6694 12.0914 11.1692 11.8843 10.6477 11.8843H6.74622V11.8857ZM6.74622 18.3386C6.70902 18.3386 6.67217 18.3459 6.6378 18.3602C6.60342 18.3744 6.57219 18.3953 6.54588 18.4216C6.51957 18.4479 6.4987 18.4791 6.48446 18.5135C6.47022 18.5479 6.46289 18.5847 6.46289 18.6219V22.6934C6.46289 22.8493 6.59039 22.9768 6.74622 22.9768H10.8999C11.5149 22.9768 12.1048 22.7324 12.5397 22.2975C12.9746 21.8626 13.219 21.2728 13.219 20.6577C13.219 20.0426 12.9746 19.4528 12.5397 19.0179C12.1048 18.5829 11.5149 18.3386 10.8999 18.3386H6.74622ZM22.8608 18.5398C22.8277 18.5398 22.796 18.5266 22.7727 18.5033C22.7493 18.4799 22.7361 18.4482 22.7361 18.4151C22.7361 17.0353 23.8539 15.9175 25.2323 15.9175H25.7848C27.1632 15.9175 28.281 17.0367 28.281 18.4151C28.281 18.4831 28.2243 18.5398 28.1563 18.5398H22.8608Z" fill="white" fill-opacity="0.5"/>
<path fill-rule="evenodd" clip-rule="evenodd" d="M17.8072 16.9899C17.7167 16.8761 17.6222 16.7655 17.5238 16.6584C18.1373 15.6908 18.4489 14.5618 18.4192 13.4185C18.4448 12.4338 18.2477 11.4561 17.8426 10.5583C17.4475 9.66576 16.816 8.89817 16.0165 8.33834L16.0009 8.327C15.2468 7.80944 14.3918 7.45703 13.492 7.29284C12.6277 7.11373 11.7467 7.02823 10.8641 7.03784H2.83301C2.26942 7.03784 1.72892 7.26172 1.33041 7.66024C0.931891 8.05875 0.708008 8.59925 0.708008 9.16284V26.1019C0.708008 26.6655 0.931891 27.206 1.33041 27.6045C1.72892 28.003 2.26942 28.2269 2.83301 28.2269H11.0497C11.9818 28.2269 12.9083 28.1093 13.8093 27.8756C14.7352 27.6362 15.6124 27.2379 16.4018 26.6983L16.4118 26.6913C17.1995 26.1458 17.8533 25.429 18.3243 24.5946C18.6356 25.192 19.0201 25.7483 19.4689 26.2507C20.2311 27.0723 21.1689 27.7098 22.2116 28.1235L22.2371 28.1334C23.3078 28.5398 24.4452 28.7416 25.5903 28.7284C27.2379 28.7703 28.8626 28.3359 30.2696 27.4775C31.8134 26.4289 32.9286 24.8601 33.4118 23.0575C33.5033 22.714 33.5072 22.3531 33.4231 22.0078C33.5818 21.7343 33.6823 21.4227 33.7064 21.0883C33.7865 19.9659 33.6905 18.8378 33.4217 17.745L33.4188 17.7365C33.1445 16.6405 32.6647 15.6065 32.005 14.6893L31.9838 14.6581C31.2755 13.7094 30.359 12.9359 29.3048 12.3971C28.1726 11.841 26.9253 11.5595 25.664 11.5754C24.5115 11.5702 23.3693 11.7936 22.3037 12.2328L22.2895 12.2384C21.2875 12.6599 20.3793 13.2762 19.6177 14.0518L19.6007 14.0673C18.8361 14.8635 18.2439 15.8087 17.861 16.844L17.8596 16.8468C17.8417 16.8944 17.8242 16.9421 17.8072 16.9899ZM13.9227 16.8908C14.8771 17.1213 15.715 17.6914 16.28 18.4944C16.8052 19.292 17.0732 20.2315 17.0478 21.1861C17.0713 21.9576 16.8998 22.7226 16.5492 23.4103C16.2333 24.0237 15.77 24.5507 15.2033 24.9445C14.6161 25.3454 13.9637 25.6411 13.2753 25.8186C12.5489 26.0068 11.8015 26.102 11.0511 26.1019H2.83301V9.16284H10.8768C11.6192 9.15371 12.3602 9.22591 13.0868 9.37817C13.7003 9.48725 14.2839 9.72667 14.7982 10.0794C15.2827 10.4194 15.6652 10.8841 15.9032 11.4253C16.1865 12.05 16.3197 12.7328 16.2928 13.4185C16.3229 14.1705 16.1206 14.9135 15.7133 15.5463C15.2713 16.1413 14.6083 16.6046 13.9227 16.8908ZM22.6692 21.2399C22.6645 21.1389 22.6645 21.0378 22.6692 20.9368H31.5871C31.6526 20.0354 31.5751 19.1293 31.3576 18.2522C31.1488 17.4166 30.7835 16.6282 30.2809 15.9288C29.7737 15.2501 29.1194 14.6951 28.367 14.3053C27.5293 13.8934 26.6059 13.6861 25.6725 13.7004C24.7952 13.6939 23.9254 13.8624 23.114 14.1963C22.3703 14.5093 21.6973 14.9655 21.1335 15.5393C20.5708 16.1245 20.1349 16.8194 19.8528 17.5807C19.5512 18.4016 19.401 19.2703 19.4094 20.1448C19.3953 21.0317 19.5412 21.9143 19.8401 22.7501C20.0951 23.5066 20.4974 24.205 21.0258 24.8043C21.5727 25.3922 22.2442 25.8512 22.9922 26.1458C23.8265 26.463 24.7135 26.6183 25.6059 26.6034C26.8574 26.6421 28.0931 26.3152 29.1618 25.6628C30.2394 24.8996 31.0162 23.7835 31.3576 22.5078H28.3798C28.2205 22.9299 27.9275 23.2881 27.5453 23.5278C27.027 23.8703 26.4153 24.044 25.7943 24.0251C25.3832 24.0677 24.9677 24.0253 24.5736 23.9005C24.1795 23.7757 23.8153 23.5712 23.5036 23.2998C22.9975 22.729 22.7025 22.0019 22.6678 21.2399H22.6692Z" fill="white" fill-opacity="0.5"/>
<path d="M28.9663 9.061C28.9648 8.91169 28.9044 8.76901 28.7983 8.66396C28.6922 8.55892 28.5489 8.49999 28.3996 8.5H22.6975C22.5472 8.5 22.4031 8.5597 22.2968 8.66597C22.1906 8.77224 22.1309 8.91638 22.1309 9.06667V10.5825C22.1309 10.6569 22.1455 10.7306 22.174 10.7994C22.2025 10.8681 22.2442 10.9306 22.2968 10.9832C22.3495 11.0358 22.4119 11.0776 22.4807 11.106C22.5494 11.1345 22.6231 11.1492 22.6975 11.1492H28.4152C28.4901 11.1492 28.5642 11.1343 28.6334 11.1055C28.7025 11.0767 28.7652 11.0344 28.8179 10.9812C28.8706 10.928 28.9122 10.8648 28.9404 10.7954C28.9685 10.726 28.9826 10.6517 28.9819 10.5768L28.9663 9.061Z" fill="white" fill-opacity="0.5"/>
</svg>
