<svg width="34" height="34" viewBox="0 0 34 34" fill="none" xmlns="http://www.w3.org/2000/svg">
<path d="M24.7921 12.7485C23.5238 12.748 22.2751 13.0617 21.1577 13.6616C21.0557 13.3931 20.8745 13.1619 20.638 12.9988C20.4015 12.8357 20.121 12.7484 19.8337 12.7485H14.1671C13.981 12.7484 13.7967 12.785 13.6248 12.8562C13.4529 12.9273 13.2967 13.0317 13.1651 13.1632C13.0335 13.2948 12.9292 13.451 12.858 13.6229C12.7869 13.7949 12.7503 13.9791 12.7504 14.1652V31.1652C12.7503 31.3513 12.7868 31.5355 12.858 31.7075C12.9292 31.8794 13.0335 32.0356 13.1651 32.1672C13.2966 32.2987 13.4529 32.4031 13.6248 32.4743C13.7967 32.5454 13.981 32.582 14.1671 32.5819H19.8337C20.0198 32.582 20.2041 32.5454 20.376 32.4743C20.5479 32.4031 20.7041 32.2987 20.8357 32.1672C20.9673 32.0356 21.0716 31.8794 21.1428 31.7075C21.2139 31.5355 21.2505 31.3513 21.2504 31.1652V23.3735C21.2504 22.9978 21.3996 22.6375 21.6653 22.3718C21.931 22.1061 22.2913 21.9569 22.6671 21.9569C23.0428 21.9569 23.4031 22.1061 23.6688 22.3718C23.9345 22.6375 24.0837 22.9978 24.0837 23.3735V31.1652C24.0836 31.3513 24.1202 31.5355 24.1913 31.7075C24.2625 31.8794 24.3668 32.0356 24.4984 32.1672C24.63 32.2987 24.7862 32.4031 24.9581 32.4743C25.1301 32.5454 25.3143 32.582 25.5004 32.5819H31.1671C31.3531 32.582 31.5374 32.5454 31.7093 32.4743C31.8812 32.4031 32.0375 32.2987 32.169 32.1672C32.3006 32.0356 32.4049 31.8794 32.4761 31.7075C32.5473 31.5355 32.5838 31.3513 32.5837 31.1652V20.5402C32.5812 18.4745 31.7594 16.4942 30.2988 15.0335C28.8381 13.5728 26.8577 12.7511 24.7921 12.7485ZM29.7504 29.7485H26.9171V23.3735C26.9171 22.2464 26.4693 21.1654 25.6723 20.3683C24.8752 19.5713 23.7942 19.1235 22.6671 19.1235C21.5399 19.1235 20.4589 19.5713 19.6618 20.3683C18.8648 21.1654 18.4171 22.2464 18.4171 23.3735V29.7485H15.5837V15.5819H18.4171V16.578C18.4172 16.8715 18.5085 17.1577 18.6784 17.3972C18.8482 17.6366 19.0882 17.8174 19.3651 17.9145C19.6421 18.0117 19.9424 18.0205 20.2246 17.9397C20.5068 17.8589 20.7569 17.6925 20.9405 17.4634C21.5763 16.6559 22.4483 16.0672 23.4349 15.7793C24.4214 15.4914 25.4733 15.5189 26.4435 15.8577C27.4137 16.1966 28.2539 16.8299 28.8468 17.6694C29.4396 18.5089 29.7555 19.5125 29.7504 20.5402V29.7485ZM9.91705 12.7485H4.25039C4.06432 12.7484 3.88005 12.785 3.70813 12.8562C3.5362 12.9273 3.37999 13.0317 3.24841 13.1632C3.11684 13.2948 3.0125 13.451 2.94134 13.6229C2.87018 13.7949 2.83361 13.9791 2.83372 14.1652V31.1652C2.83361 31.3513 2.87018 31.5355 2.94134 31.7075C3.01249 31.8794 3.11684 32.0356 3.24841 32.1672C3.37998 32.2987 3.5362 32.4031 3.70812 32.4743C3.88005 32.5454 4.06432 32.582 4.25039 32.5819H9.91705C10.1031 32.582 10.2874 32.5454 10.4593 32.4743C10.6312 32.4031 10.7875 32.2987 10.919 32.1672C11.0506 32.0356 11.1549 31.8794 11.2261 31.7075C11.2973 31.5355 11.3338 31.3513 11.3337 31.1652V14.1652C11.3338 13.9791 11.2973 13.7949 11.2261 13.6229C11.1549 13.451 11.0506 13.2948 10.919 13.1632C10.7875 13.0317 10.6312 12.9273 10.4593 12.8562C10.2874 12.785 10.1031 12.7484 9.91705 12.7485ZM8.50039 29.7485H5.66705V15.5819H8.50039V29.7485ZM7.10447 2.18445C6.48449 2.14734 5.86343 2.23672 5.27907 2.44717C4.6947 2.65761 4.15925 2.98471 3.70528 3.40858C3.2513 3.83246 2.88828 4.34424 2.6383 4.91281C2.38832 5.48138 2.2566 6.09486 2.25115 6.71593C2.2457 7.33701 2.36664 7.9527 2.60661 8.52557C2.84657 9.09844 3.20055 9.61651 3.64702 10.0483C4.09349 10.4801 4.62312 10.8165 5.2037 11.0372C5.78428 11.2578 6.40368 11.3581 7.02422 11.3319H7.06434C7.68597 11.3688 8.3086 11.2786 8.89418 11.0667C9.47977 10.8549 10.016 10.5259 10.4701 10.0998C10.9243 9.67372 11.2868 9.15952 11.5355 8.58861C11.7842 8.0177 11.9138 7.40207 11.9166 6.77935C11.9193 6.15664 11.795 5.5399 11.5513 4.96683C11.3077 4.39376 10.9497 3.87639 10.4993 3.44634C10.049 3.01629 9.51561 2.68259 8.93191 2.46562C8.3482 2.24866 7.72639 2.15298 7.10446 2.18445H7.10447ZM7.06435 8.49854H7.02422C6.77923 8.52829 6.53071 8.50531 6.29533 8.43114C6.05995 8.35698 5.84315 8.23334 5.65946 8.06853C5.47578 7.90371 5.32946 7.70152 5.23031 7.47553C5.13117 7.24953 5.08149 7.00494 5.08462 6.75818C5.08462 5.7012 5.87734 5.01777 7.10447 5.01777C7.35196 4.98478 7.60365 5.00521 7.84258 5.07767C8.08151 5.15014 8.30214 5.27297 8.4896 5.43789C8.67706 5.6028 8.82701 5.80598 8.92934 6.03372C9.03167 6.26147 9.084 6.5085 9.08282 6.75818C9.08282 7.81514 8.2901 8.49854 7.06435 8.49854Z" fill="white" fill-opacity="0.5"/>
</svg>
