<svg width="34" height="35" viewBox="0 0 34 35" fill="none" xmlns="http://www.w3.org/2000/svg">
<path fill-rule="evenodd" clip-rule="evenodd" d="M26.4669 0.523134C20.1749 -0.174378 13.8251 -0.174378 7.53312 0.523134C3.91056 0.928242 0.984783 3.782 0.559871 7.42256C-0.186624 13.8045 -0.186624 20.2517 0.559871 26.6336C0.984783 30.2742 3.90876 33.128 7.53312 33.5331C13.8252 34.2299 20.1749 34.2299 26.4669 33.5331C30.0895 33.128 33.0153 30.2742 33.4402 26.6336C34.1866 20.2517 34.1866 13.8045 33.4402 7.42256C33.0153 3.782 30.0913 0.928242 26.4669 0.523134ZM7.832 3.20584C13.9254 2.53044 20.0747 2.53044 26.168 3.20584C28.5627 3.47592 30.4802 5.36462 30.7593 7.73764C31.4812 13.9102 31.4812 20.146 30.7593 26.3186C30.6149 27.4799 30.0833 28.5588 29.2502 29.3807C28.4171 30.2027 27.3313 30.7198 26.168 30.8486C20.0747 31.524 13.9254 31.524 7.832 30.8486C6.66878 30.7198 5.58293 30.2027 4.74986 29.3807C3.91678 28.5588 3.38513 27.4799 3.24078 26.3186C2.51888 20.146 2.51888 13.9102 3.24078 7.73764C3.38513 6.57626 3.91678 5.49745 4.74986 4.67549C5.58293 3.85352 6.66878 3.33459 7.832 3.20584Z" fill="white" fill-opacity="0.5"/>
<path d="M24.9395 11.5906L26.4519 10.1449V9.82617H21.2269L17.5017 19.1166L13.267 9.82617H7.78634V10.1449L9.55081 12.2694C9.63652 12.3462 9.70289 12.4422 9.7445 12.5495C9.78611 12.6568 9.80179 12.7725 9.79027 12.887V21.243C9.81547 21.3914 9.80547 21.5437 9.76106 21.6875C9.71666 21.8314 9.63909 21.9628 9.5346 22.0712L7.54688 24.4839V24.7989H13.177V24.4821L11.191 22.073C11.0856 21.9648 11.0061 21.834 10.9587 21.6905C10.9113 21.547 10.8971 21.3946 10.9174 21.2448V14.0177L15.8597 24.8007H16.4358L20.6796 14.0177V22.6114C20.6796 22.84 20.6796 22.8832 20.5283 23.0345L19.0015 24.5163V24.8331H26.4141V24.5163L24.9413 23.0687C24.8772 23.0202 24.8276 22.9552 24.7978 22.8807C24.768 22.8061 24.7591 22.7248 24.772 22.6456V12.0138C24.7591 11.9345 24.768 11.8532 24.7978 11.7786C24.8276 11.7041 24.8754 11.6391 24.9395 11.5906Z" fill="white" fill-opacity="0.5"/>
</svg>
