<svg width="34" height="34" viewBox="0 0 34 34" fill="none" xmlns="http://www.w3.org/2000/svg">
<path d="M32.5713 5.59604C32.5714 5.34581 32.5053 5.10001 32.3795 4.88367C32.2538 4.66732 32.073 4.48816 31.8555 4.36444C31.638 4.24071 31.3916 4.17684 31.1413 4.17933C30.8911 4.18181 30.646 4.25057 30.431 4.37859C29.6018 4.87213 28.7091 5.2501 27.7776 5.50201C26.4473 4.3605 24.7507 3.73585 22.9978 3.74224C21.0748 3.74445 19.2279 4.49391 17.8471 5.83236C16.4663 7.17081 15.6597 8.99348 15.5976 10.9155C11.8066 10.311 8.3707 8.33224 5.94511 5.3567C5.79896 5.17938 5.61232 5.03981 5.40092 4.94975C5.18951 4.8597 4.95955 4.8218 4.73043 4.83926C4.50145 4.85812 4.28049 4.93247 4.08669 5.05588C3.89289 5.1793 3.73206 5.34807 3.61812 5.54759C3.03379 6.56733 2.69819 7.7105 2.63857 8.88428C2.57895 10.0581 2.79701 11.2293 3.27502 12.303L3.27226 12.3058C3.05742 12.4381 2.88011 12.6234 2.75731 12.8438C2.6345 13.0642 2.5703 13.3124 2.57084 13.5648C2.56824 13.7729 2.58072 13.981 2.6082 14.1873C2.75289 15.9699 3.54289 17.6384 4.83004 18.88C4.74272 19.0464 4.68943 19.2285 4.67328 19.4156C4.65712 19.6028 4.67843 19.7913 4.73596 19.9702C5.29712 21.7186 6.4905 23.1946 8.08257 24.1095C6.46507 24.735 4.71858 24.9531 2.99694 24.7445C2.6783 24.7045 2.35552 24.774 2.08156 24.9416C1.80761 25.1092 1.59873 25.3649 1.48921 25.6668C1.37968 25.9687 1.37601 26.2988 1.47879 26.6031C1.58157 26.9074 1.7847 27.1676 2.05486 27.3413C5.01583 29.2484 8.4634 30.2623 11.9854 30.2618C15.9793 30.3067 19.8762 29.0305 23.0697 26.6315C26.2633 24.2326 28.5745 20.8455 29.6438 16.9971C30.144 15.3207 30.3994 13.5808 30.402 11.8313C30.402 11.7386 30.402 11.6432 30.4006 11.5477C31.1403 10.75 31.7133 9.81271 32.086 8.79072C32.4587 7.76873 32.6237 6.68262 32.5713 5.59604ZM27.8868 10.1462C27.6529 10.423 27.5344 10.7792 27.5562 11.141C27.57 11.3747 27.5686 11.6099 27.5686 11.8313C27.5657 13.3097 27.3491 14.7798 26.9253 16.1961C26.052 19.4706 24.105 22.3573 21.3962 24.3938C18.6874 26.4304 15.3736 27.499 11.9854 27.4285C10.7683 27.4289 9.55539 27.2858 8.37176 27.0024C9.8811 26.516 11.2923 25.7661 12.5401 24.7874C12.77 24.6065 12.9382 24.3589 13.0216 24.0785C13.1051 23.7982 13.0998 23.4989 13.0065 23.2217C12.9131 22.9445 12.7362 22.7029 12.5002 22.5302C12.2641 22.3575 11.9803 22.2621 11.6879 22.2571C10.5104 22.2388 9.38597 21.7641 8.55155 20.9331C8.76323 20.893 8.97352 20.8432 9.18242 20.7837C9.48844 20.6966 9.75624 20.509 9.94269 20.2512C10.1292 19.9934 10.2234 19.6804 10.2103 19.3625C10.1972 19.0446 10.0775 18.7403 9.87048 18.4987C9.66344 18.2571 9.38112 18.0922 9.06898 18.0306C8.38549 17.8956 7.74233 17.6048 7.18951 17.1809C6.63668 16.7569 6.18907 16.2111 5.88148 15.586C6.13751 15.621 6.39518 15.6427 6.65345 15.651C6.96027 15.6557 7.26062 15.5626 7.51106 15.3853C7.7615 15.208 7.94905 14.9556 8.0466 14.6646C8.14007 14.3711 8.13526 14.055 8.0329 13.7644C7.93054 13.4738 7.73621 13.2245 7.47938 13.0543C6.85625 12.6392 6.34582 12.076 5.9938 11.4151C5.64178 10.7543 5.45915 10.0165 5.46228 9.26776C5.46228 9.17369 5.46505 9.07961 5.47059 8.98692C8.64571 11.9481 12.764 13.6937 17.1 13.9162C17.3189 13.9248 17.5368 13.8836 17.7374 13.7956C17.938 13.7077 18.116 13.5753 18.258 13.4085C18.3985 13.24 18.498 13.0413 18.5486 12.8279C18.5992 12.6144 18.5997 12.3922 18.5498 12.1786C18.4688 11.8405 18.4275 11.4941 18.4267 11.1465C18.428 9.93459 18.91 8.77269 19.7669 7.91574C20.6239 7.0588 21.7858 6.57681 22.9977 6.57553C23.6212 6.57386 24.2383 6.70147 24.81 6.9503C25.3818 7.19914 25.8957 7.56379 26.3194 8.02125C26.4828 8.19703 26.6884 8.32809 26.9168 8.40196C27.1451 8.47582 27.3886 8.49004 27.624 8.44326C28.2059 8.33001 28.7795 8.17748 29.3408 7.98673C28.958 8.7701 28.4687 9.49682 27.8868 10.1462Z" fill="white" fill-opacity="0.5"/>
</svg>
