<svg width="34" height="35" viewBox="0 0 34 35" fill="none" xmlns="http://www.w3.org/2000/svg">
<path d="M6.74622 12.858C6.70902 12.858 6.67217 12.8653 6.6378 12.8796C6.60342 12.8938 6.57219 12.9147 6.54588 12.941C6.51957 12.9673 6.4987 12.9985 6.48446 13.0329C6.47022 13.0673 6.46289 13.1041 6.46289 13.1413V16.5059C6.46289 16.6617 6.59039 16.7892 6.74622 16.7892H10.6477C11.1692 16.7892 11.6694 16.5821 12.0381 16.2133C12.4069 15.8446 12.6141 15.3444 12.6141 14.8229C12.6141 14.3014 12.4069 13.8013 12.0381 13.4325C11.6694 13.0637 11.1692 12.8566 10.6477 12.8566H6.74622V12.858ZM6.74622 19.3109C6.70902 19.3109 6.67217 19.3182 6.6378 19.3325C6.60342 19.3467 6.57219 19.3676 6.54588 19.3939C6.51957 19.4202 6.4987 19.4514 6.48446 19.4858C6.47022 19.5202 6.46289 19.557 6.46289 19.5942V23.6657C6.46289 23.8216 6.59039 23.9491 6.74622 23.9491H10.8999C11.5149 23.9491 12.1048 23.7048 12.5397 23.2698C12.9746 22.8349 13.219 22.2451 13.219 21.63C13.219 21.0149 12.9746 20.4251 12.5397 19.9902C12.1048 19.5552 11.5149 19.3109 10.8999 19.3109H6.74622ZM22.8608 19.5121C22.8277 19.5121 22.796 19.4989 22.7727 19.4756C22.7493 19.4522 22.7361 19.4205 22.7361 19.3874C22.7361 18.0076 23.8539 16.8898 25.2323 16.8898H25.7848C27.1632 16.8898 28.281 18.009 28.281 19.3874C28.281 19.4554 28.2243 19.5121 28.1563 19.5121H22.8608Z" fill="white" fill-opacity="0.5"/>
<path fill-rule="evenodd" clip-rule="evenodd" d="M17.8077 17.9623C17.7172 17.8484 17.6227 17.7379 17.5243 17.6308C18.1377 16.6632 18.4494 15.5341 18.4197 14.3908C18.4453 13.4062 18.2482 12.4284 17.8431 11.5306C17.448 10.6381 16.8165 9.8705 16.017 9.31067L16.0014 9.29934C15.2473 8.78178 14.3923 8.42936 13.4925 8.26517C12.6282 8.08606 11.7472 8.00057 10.8646 8.01017H2.8335C2.26991 8.01017 1.72941 8.23406 1.33089 8.63257C0.932379 9.03109 0.708496 9.57159 0.708496 10.1352V27.0743C0.708496 27.6378 0.932379 28.1783 1.33089 28.5769C1.72941 28.9754 2.26991 29.1993 2.8335 29.1993H11.0502C11.9823 29.1993 12.9088 29.0817 13.8098 28.8479C14.7356 28.6086 15.6128 28.2102 16.4023 27.6707L16.4122 27.6636C17.2 27.1182 17.8538 26.4013 18.3247 25.5669C18.6361 26.1643 19.0206 26.7206 19.4694 27.223C20.2316 28.0447 21.1694 28.6822 22.2121 29.0958L22.2376 29.1058C23.3083 29.5121 24.4457 29.714 25.5908 29.7008C27.2384 29.7426 28.8631 29.3083 30.2701 28.4498C31.8138 27.4012 32.9291 25.8324 33.4122 24.0298C33.5038 23.6864 33.5077 23.3254 33.4236 22.9801C33.5822 22.7067 33.6828 22.395 33.7069 22.0607C33.787 20.9382 33.6909 19.8101 33.4222 18.7173L33.4193 18.7088C33.145 17.6128 32.6652 16.5788 32.0055 15.6616L31.9842 15.6304C31.276 14.6818 30.3595 13.9083 29.3053 13.3694C28.1731 12.8133 26.9258 12.5318 25.6645 12.5478C24.5119 12.5426 23.3698 12.766 22.3042 13.2051L22.29 13.2108C21.288 13.6322 20.3798 14.2486 19.6182 15.0241L19.6012 15.0397C18.8366 15.8358 18.2444 16.781 17.8615 17.8163L17.8601 17.8192C17.8422 17.8667 17.8247 17.9144 17.8077 17.9623ZM13.9232 17.8631C14.8776 18.0937 15.7155 18.6637 16.2805 19.4668C16.8057 20.2644 17.0737 21.2038 17.0483 22.1584C17.0718 22.9299 16.9003 23.6949 16.5497 24.3826C16.2337 24.996 15.7705 25.523 15.2038 25.9168C14.6166 26.3177 13.9642 26.6135 13.2757 26.7909C12.5493 26.9791 11.802 27.0744 11.0516 27.0743H2.8335V10.1352H10.8773C11.6196 10.126 12.3607 10.1983 13.0873 10.3505C13.7007 10.4596 14.2844 10.699 14.7987 11.0518C15.2832 11.3918 15.6657 11.8564 15.9037 12.3976C16.187 13.0223 16.3202 13.7052 16.2932 14.3908C16.3234 15.1428 16.1211 15.8858 15.7138 16.5187C15.2718 17.1137 14.6088 17.5769 13.9232 17.8631ZM22.6697 22.2123C22.665 22.1113 22.665 22.0101 22.6697 21.9091H31.5876C31.653 21.0077 31.5756 20.1017 31.3581 19.2245C31.1493 18.3889 30.784 17.6006 30.2814 16.9012C29.7742 16.2224 29.1199 15.6674 28.3675 15.2777C27.5298 14.8658 26.6064 14.6585 25.673 14.6728C24.7957 14.6662 23.9259 14.8348 23.1145 15.1686C22.3707 15.4817 21.6978 15.9378 21.134 16.5116C20.5713 17.0968 20.1353 17.7917 19.8533 18.553C19.5517 19.3739 19.4015 20.2427 19.4099 21.1172C19.3957 22.004 19.5417 22.8866 19.8406 23.7224C20.0956 24.4789 20.4979 25.1773 21.0263 25.7766C21.5732 26.3645 22.2447 26.8235 22.9927 27.1182C23.8269 27.4353 24.714 27.5906 25.6064 27.5758C26.8579 27.6145 28.0936 27.2876 29.1622 26.6351C30.2399 25.8719 31.0167 24.7558 31.3581 23.4802H28.3802C28.221 23.9022 27.9279 24.2605 27.5458 24.5002C27.0275 24.8426 26.4158 25.0163 25.7948 24.9974C25.3837 25.04 24.9681 24.9976 24.5741 24.8728C24.18 24.7481 23.8158 24.5436 23.5041 24.2721C22.998 23.7013 22.703 22.9743 22.6682 22.2123H22.6697Z" fill="white" fill-opacity="0.5"/>
<path d="M28.9668 10.0332C28.9653 9.88386 28.9049 9.74118 28.7988 9.63613C28.6927 9.53108 28.5494 9.47216 28.4001 9.47217H22.698C22.5477 9.47217 22.4036 9.53187 22.2973 9.63814C22.1911 9.74441 22.1313 9.88855 22.1313 10.0388V11.5547C22.1313 11.6291 22.146 11.7028 22.1745 11.7715C22.203 11.8403 22.2447 11.9027 22.2973 11.9554C22.3499 12.008 22.4124 12.0497 22.4812 12.0782C22.5499 12.1067 22.6236 12.1213 22.698 12.1213H28.4157C28.4906 12.1213 28.5647 12.1065 28.6339 12.0777C28.703 12.0488 28.7657 12.0066 28.8184 11.9534C28.8711 11.9001 28.9127 11.837 28.9408 11.7676C28.969 11.6982 28.9831 11.6239 28.9823 11.549L28.9668 10.0332Z" fill="white" fill-opacity="0.5"/>
</svg>
