<svg width="34" height="35" viewBox="0 0 34 35" fill="none" xmlns="http://www.w3.org/2000/svg">
<path d="M24.7916 13.7207C23.5233 13.7202 22.2746 14.0339 21.1572 14.6338C21.0552 14.3653 20.874 14.1341 20.6375 13.971C20.401 13.8079 20.1205 13.7206 19.8332 13.7207H14.1666C13.9805 13.7206 13.7962 13.7572 13.6243 13.8284C13.4524 13.8995 13.2962 14.0039 13.1646 14.1354C13.033 14.267 12.9287 14.4232 12.8575 14.5951C12.7864 14.7671 12.7498 14.9513 12.7499 15.1374V32.1374C12.7498 32.3235 12.7864 32.5077 12.8575 32.6797C12.9287 32.8516 13.033 33.0078 13.1646 33.1394C13.2962 33.2709 13.4524 33.3753 13.6243 33.4464C13.7962 33.5176 13.9805 33.5542 14.1666 33.5541H19.8332C20.0193 33.5542 20.2036 33.5176 20.3755 33.4464C20.5474 33.3753 20.7036 33.2709 20.8352 33.1394C20.9668 33.0078 21.0711 32.8516 21.1423 32.6797C21.2134 32.5077 21.25 32.3235 21.2499 32.1374V24.3457C21.2499 23.97 21.3992 23.6097 21.6648 23.344C21.9305 23.0783 22.2908 22.9291 22.6666 22.9291C23.0423 22.9291 23.4026 23.0783 23.6683 23.344C23.934 23.6097 24.0832 23.97 24.0832 24.3457V32.1374C24.0831 32.3235 24.1197 32.5077 24.1908 32.6797C24.262 32.8516 24.3664 33.0078 24.4979 33.1394C24.6295 33.2709 24.7857 33.3753 24.9576 33.4464C25.1296 33.5176 25.3138 33.5542 25.4999 33.5541H31.1666C31.3526 33.5542 31.5369 33.5176 31.7088 33.4464C31.8808 33.3753 32.037 33.2709 32.1685 33.1394C32.3001 33.0078 32.4045 32.8516 32.4756 32.6797C32.5468 32.5077 32.5833 32.3235 32.5832 32.1374V21.5124C32.5807 19.4467 31.7589 17.4664 30.2983 16.0057C28.8376 14.545 26.8573 13.7233 24.7916 13.7207ZM29.7499 30.7207H26.9166V24.3457C26.9166 23.2186 26.4688 22.1376 25.6718 21.3405C24.8747 20.5435 23.7937 20.0957 22.6666 20.0957C21.5394 20.0957 20.4584 20.5435 19.6614 21.3405C18.8643 22.1376 18.4166 23.2186 18.4166 24.3457V30.7207H15.5832V16.5541H18.4166V17.5502C18.4167 17.8437 18.508 18.1299 18.6779 18.3694C18.8477 18.6088 19.0877 18.7896 19.3646 18.8867C19.6416 18.9839 19.9419 18.9927 20.2241 18.9119C20.5063 18.8311 20.7565 18.6647 20.94 18.4356C21.5758 17.6281 22.4478 17.0394 23.4344 16.7515C24.4209 16.4636 25.4728 16.4911 26.443 16.8299C27.4132 17.1688 28.2534 17.8021 28.8463 18.6416C29.4391 19.4811 29.7551 20.4847 29.7499 21.5124V30.7207ZM9.91656 13.7207H4.2499C4.06383 13.7206 3.87956 13.7572 3.70764 13.8284C3.53571 13.8995 3.3795 14.0039 3.24793 14.1354C3.11636 14.267 3.01201 14.4232 2.94085 14.5951C2.8697 14.7671 2.83312 14.9513 2.83323 15.1374V32.1374C2.83312 32.3235 2.86969 32.5077 2.94085 32.6797C3.012 32.8516 3.11635 33.0078 3.24792 33.1394C3.37949 33.2709 3.53571 33.3753 3.70764 33.4464C3.87956 33.5176 4.06383 33.5542 4.2499 33.5541H9.91656C10.1026 33.5542 10.2869 33.5176 10.4588 33.4464C10.6308 33.3753 10.787 33.2709 10.9185 33.1394C11.0501 33.0078 11.1545 32.8516 11.2256 32.6797C11.2968 32.5077 11.3333 32.3235 11.3332 32.1374V15.1374C11.3333 14.9513 11.2968 14.7671 11.2256 14.5951C11.1545 14.4232 11.0501 14.267 10.9185 14.1354C10.787 14.0039 10.6308 13.8995 10.4588 13.8284C10.2869 13.7572 10.1026 13.7206 9.91656 13.7207ZM8.4999 30.7207H5.66656V16.5541H8.4999V30.7207ZM7.10399 3.15665C6.484 3.11954 5.86294 3.20892 5.27858 3.41936C4.69422 3.62981 4.15877 3.95691 3.70479 4.38078C3.25081 4.80465 2.88779 5.31644 2.63781 5.88501C2.38783 6.45358 2.25611 7.06706 2.25066 7.68813C2.24522 8.30921 2.36615 8.9249 2.60612 9.49777C2.84608 10.0706 3.20007 10.5887 3.64654 11.0205C4.09301 11.4523 4.62263 11.7887 5.20321 12.0094C5.78379 12.23 6.40319 12.3303 7.02373 12.3041H7.06385C7.68548 12.341 8.30811 12.2508 8.8937 12.0389C9.47928 11.8271 10.0155 11.4981 10.4697 11.072C10.9238 10.6459 11.2863 10.1317 11.535 9.5608C11.7837 8.98989 11.9133 8.37427 11.9161 7.75155C11.9188 7.12883 11.7945 6.5121 11.5509 5.93903C11.3072 5.36596 10.9492 4.84859 10.4988 4.41854C10.0485 3.98849 9.51513 3.65479 8.93142 3.43782C8.34772 3.22085 7.7259 3.12518 7.10397 3.15665H7.10399ZM7.06387 9.47073H7.02373C6.77874 9.50048 6.53022 9.47751 6.29484 9.40334C6.05946 9.32918 5.84266 9.20554 5.65898 9.04073C5.47529 8.87591 5.32897 8.67372 5.22983 8.44772C5.13068 8.22173 5.08101 7.97714 5.08413 7.73037C5.08413 6.6734 5.87685 5.98997 7.10399 5.98997C7.35147 5.95698 7.60316 5.9774 7.84209 6.04987C8.08102 6.12234 8.30165 6.24517 8.48911 6.41009C8.67657 6.575 8.82652 6.77818 8.92885 7.00592C9.03118 7.23367 9.08351 7.4807 9.08233 7.73037C9.08233 8.78733 8.28961 9.47073 7.06387 9.47073Z" fill="white" fill-opacity="0.5"/>
</svg>
