<svg width="34" height="36" viewBox="0 0 34 36" fill="none" xmlns="http://www.w3.org/2000/svg">
<path fill-rule="evenodd" clip-rule="evenodd" d="M26.4669 1.4953C20.1749 0.79779 13.8251 0.79779 7.53312 1.4953C3.91056 1.90041 0.984783 4.75417 0.559871 8.39473C-0.186624 14.7767 -0.186624 21.2239 0.559871 27.6058C0.984783 31.2464 3.90876 34.1001 7.53312 34.5052C13.8252 35.202 20.1749 35.202 26.4669 34.5052C30.0895 34.1001 33.0153 31.2464 33.4402 27.6058C34.1866 21.2239 34.1866 14.7767 33.4402 8.39473C33.0153 4.75417 30.0913 1.90041 26.4669 1.4953ZM7.832 4.17801C13.9254 3.5026 20.0747 3.5026 26.168 4.17801C28.5627 4.44808 30.4802 6.33678 30.7593 8.70981C31.4812 14.8824 31.4812 21.1181 30.7593 27.2907C30.6149 28.4521 30.0833 29.5309 29.2502 30.3529C28.4171 31.1749 27.3313 31.692 26.168 31.8207C20.0747 32.4962 13.9254 32.4962 7.832 31.8207C6.66878 31.692 5.58293 31.1749 4.74986 30.3529C3.91678 29.5309 3.38513 28.4521 3.24078 27.2907C2.51888 21.1181 2.51888 14.8824 3.24078 8.70981C3.38513 7.54843 3.91678 6.46962 4.74986 5.64765C5.58293 4.82569 6.66878 4.30676 7.832 4.17801Z" fill="white" fill-opacity="0.5"/>
<path d="M24.94 12.5629L26.4524 11.1171V10.7984H21.2274L17.5022 20.0888L13.2675 10.7984H7.78683V11.1171L9.55129 13.2416C9.63701 13.3184 9.70337 13.4144 9.74499 13.5217C9.7866 13.629 9.80228 13.7447 9.79076 13.8592V22.2152C9.81596 22.3636 9.80596 22.5159 9.76155 22.6598C9.71714 22.8036 9.63957 22.935 9.53509 23.0434L7.54736 25.4561V25.7711H13.1775V25.4543L11.1915 23.0452C11.086 22.937 11.0066 22.8062 10.9592 22.6627C10.9118 22.5192 10.8976 22.3668 10.9179 22.217V14.9899L15.8602 25.7729H16.4363L20.68 14.9899V23.5836C20.68 23.8122 20.68 23.8554 20.5288 24.0067L19.002 25.4885V25.8054H26.4146V25.4885L24.9418 24.0409C24.8777 23.9925 24.8281 23.9274 24.7983 23.8529C24.7685 23.7783 24.7595 23.697 24.7725 23.6178V12.986C24.7595 12.9067 24.7685 12.8254 24.7983 12.7509C24.8281 12.6763 24.8759 12.6113 24.94 12.5629Z" fill="white" fill-opacity="0.5"/>
</svg>
