<svg width="34" height="35" viewBox="0 0 34 35" fill="none" xmlns="http://www.w3.org/2000/svg">
<path d="M32.5708 6.56829C32.5709 6.31806 32.5048 6.07226 32.379 5.85591C32.2533 5.63957 32.0725 5.46041 31.855 5.33669C31.6375 5.21296 31.3911 5.14909 31.1409 5.15157C30.8906 5.15406 30.6455 5.22282 30.4305 5.35084C29.6014 5.84438 28.7086 6.22235 27.7771 6.47425C26.4468 5.33275 24.7502 4.7081 22.9973 4.71448C21.0743 4.7167 19.2274 5.46616 17.8466 6.80461C16.4658 8.14306 15.6592 9.96573 15.5972 11.8877C11.8061 11.2832 8.37022 9.30449 5.94462 6.32895C5.79848 6.15163 5.61183 6.01206 5.40043 5.922C5.18902 5.83195 4.95907 5.79405 4.72995 5.81151C4.50096 5.83036 4.28001 5.90471 4.0862 6.02813C3.8924 6.15155 3.73157 6.32032 3.61764 6.51984C3.0333 7.53958 2.6977 8.68275 2.63808 9.85653C2.57847 11.0303 2.79652 12.2016 3.27453 13.2753L3.27177 13.278C3.05693 13.4104 2.87963 13.5956 2.75682 13.816C2.63401 14.0364 2.56981 14.2847 2.57035 14.537C2.56775 14.7452 2.58024 14.9532 2.60771 15.1596C2.7524 16.9421 3.5424 18.6106 4.82955 19.8523C4.74223 20.0186 4.68894 20.2007 4.67279 20.3879C4.65663 20.5751 4.67794 20.7636 4.73547 20.9424C5.29663 22.6908 6.49001 24.1669 8.08208 25.0818C6.46459 25.7072 4.71809 25.9253 2.99646 25.7168C2.67781 25.6768 2.35503 25.7463 2.08107 25.9139C1.80712 26.0814 1.59824 26.3372 1.48872 26.639C1.37919 26.9409 1.37552 27.2711 1.4783 27.5753C1.58108 27.8796 1.78421 28.1399 2.05437 28.3135C5.01534 30.2206 8.46292 31.2345 11.9849 31.2341C15.9788 31.279 19.8757 30.0027 23.0692 27.6038C26.2628 25.2048 28.574 21.8177 29.6433 17.9693C30.1435 16.2929 30.3989 14.553 30.4015 12.8036C30.4015 12.7109 30.4015 12.6154 30.4001 12.5199C31.1398 11.7223 31.7128 10.785 32.0855 9.76297C32.4582 8.74098 32.6232 7.65487 32.5708 6.56829ZM27.8864 11.1185C27.6524 11.3952 27.534 11.7515 27.5557 12.1132C27.5695 12.347 27.5682 12.5821 27.5682 12.8036C27.5653 14.2819 27.3486 15.7521 26.9248 17.1684C26.0515 20.4429 24.1045 23.3295 21.3957 25.3661C18.6869 27.4026 15.3731 28.4712 11.9849 28.4007C10.7678 28.4011 9.5549 28.2581 8.37128 27.9746C9.88061 27.4882 11.2919 26.7383 12.5396 25.7597C12.7695 25.5787 12.9377 25.3311 13.0212 25.0508C13.1046 24.7704 13.0993 24.4711 13.006 24.1939C12.9126 23.9167 12.7358 23.6752 12.4997 23.5025C12.2636 23.3298 11.9798 23.2344 11.6874 23.2293C10.5099 23.211 9.38548 22.7364 8.55107 21.9054C8.76274 21.8652 8.97303 21.8154 9.18194 21.7559C9.48795 21.6688 9.75575 21.4813 9.9422 21.2235C10.1287 20.9657 10.2229 20.6526 10.2098 20.3347C10.1967 20.0168 10.077 19.7126 9.86999 19.471C9.66295 19.2294 9.38063 19.0645 9.06849 19.0029C8.385 18.8679 7.74185 18.5771 7.18902 18.1531C6.63619 17.7291 6.18858 17.1834 5.88099 16.5583C6.13702 16.5932 6.39469 16.6149 6.65296 16.6233C6.95978 16.6279 7.26013 16.5349 7.51057 16.3575C7.76101 16.1802 7.94857 15.9278 8.04611 15.6369C8.13958 15.3433 8.13477 15.0272 8.03241 14.7366C7.93005 14.446 7.73572 14.1967 7.47889 14.0265C6.85577 13.6114 6.34533 13.0482 5.99331 12.3874C5.64129 11.7266 5.45866 10.9887 5.4618 10.24C5.4618 10.1459 5.46456 10.0519 5.4701 9.95917C8.64522 12.9204 12.7636 14.666 17.0995 14.8884C17.3184 14.8971 17.5364 14.8558 17.737 14.7679C17.9376 14.6799 18.1155 14.5475 18.2575 14.3807C18.398 14.2123 18.4975 14.0135 18.5481 13.8001C18.5988 13.5867 18.5992 13.3644 18.5493 13.1508C18.4683 12.8128 18.427 12.4664 18.4262 12.1187C18.4275 10.9068 18.9095 9.74494 19.7664 8.88799C20.6234 8.03105 21.7853 7.54905 22.9972 7.54777C23.6207 7.5461 24.2378 7.67371 24.8095 7.92255C25.3813 8.17138 25.8952 8.53604 26.3189 8.9935C26.4823 9.16928 26.6879 9.30034 26.9163 9.37421C27.1446 9.44807 27.3881 9.46229 27.6235 9.41551C28.2054 9.30226 28.779 9.14973 29.3404 8.95897C28.9575 9.74235 28.4682 10.4691 27.8864 11.1185Z" fill="white" fill-opacity="0.5"/>
</svg>
