<svg width="149" height="109" viewBox="0 0 149 109" fill="none" xmlns="http://www.w3.org/2000/svg">
<path opacity="0.1" d="M33.7924 43.2677C32.1396 43.2677 30.5534 43.5141 28.9747 43.7387C29.4861 42.0573 30.0124 40.3469 30.8573 38.8104C31.7023 36.5782 33.0216 34.6431 34.3335 32.6935C35.4305 30.5845 37.3649 29.1568 38.788 27.3521C40.2778 25.5982 42.3087 24.4314 43.9171 22.9746C45.4958 21.4526 47.5637 20.6917 49.2091 19.619C50.9287 18.6551 52.4259 17.5897 54.0268 17.0824L58.0219 15.4734L61.5351 14.0457L57.9403 0L53.5154 1.04364C52.0998 1.39152 50.3728 1.79738 48.4086 2.28296C46.4 2.64534 44.258 3.63825 41.8714 4.54419C39.5144 5.57334 36.7868 6.2691 34.252 7.92153C31.7023 9.50149 28.7598 10.8205 26.1656 12.9368C23.653 15.1183 20.6215 17.0099 18.3831 19.7857C15.9372 22.3803 13.5209 25.1054 11.6457 28.2073C9.47406 31.1643 7.9991 34.4112 6.4426 37.6218C5.03435 40.8325 3.90033 44.1156 2.97385 47.3045C1.21723 53.6968 0.431573 59.7703 0.127686 64.9667C-0.124318 70.1704 0.02392 74.4972 0.335219 77.6281C0.446397 79.1066 0.65393 80.5416 0.802168 81.5345L0.987463 82.7521L1.18017 82.7086C2.49846 88.7301 5.53319 94.2636 9.93333 98.669C14.3335 103.074 19.9192 106.172 26.0443 107.603C32.1695 109.033 38.5838 108.74 44.5452 106.755C50.5067 104.77 55.7716 101.175 59.7311 96.3868C63.6905 91.5982 66.1827 85.8114 66.9192 79.6958C67.6557 73.5802 66.6065 67.3856 63.893 61.8287C61.1795 56.2718 56.9126 51.5796 51.5858 48.2949C46.259 45.0102 40.09 43.2673 33.7924 43.2677ZM115.323 43.2677C113.67 43.2677 112.084 43.5141 110.505 43.7387C111.017 42.0573 111.543 40.3469 112.388 38.8104C113.233 36.5782 114.552 34.6431 115.864 32.6935C116.961 30.5845 118.896 29.1568 120.319 27.3521C121.808 25.5982 123.839 24.4314 125.448 22.9746C127.026 21.4526 129.094 20.6917 130.74 19.619C132.459 18.6551 133.957 17.5897 135.557 17.0824L139.552 15.4734L143.066 14.0457L139.471 0L135.046 1.04364C133.63 1.39152 131.903 1.79738 129.939 2.28296C127.931 2.64534 125.789 3.63825 123.402 4.54419C121.052 5.58059 118.317 6.2691 115.783 7.92878C113.233 9.50874 110.29 10.8278 107.696 12.9441C105.184 15.1256 102.152 17.0172 99.9138 19.7857C97.4678 22.3803 95.0516 25.1054 93.1764 28.2073C91.0047 31.1643 89.5297 34.4112 87.9732 37.6218C86.565 40.8325 85.431 44.1156 84.5045 47.3045C82.7479 53.6968 81.9622 59.7703 81.6583 64.9667C81.4063 70.1704 81.5545 74.4972 81.8658 77.6281C81.977 79.1066 82.1846 80.5416 82.3328 81.5345L82.5181 82.7521L82.7108 82.7086C84.0291 88.7301 87.0638 94.2636 91.464 98.669C95.8641 103.074 101.45 106.172 107.575 107.603C113.7 109.033 120.114 108.74 126.076 106.755C132.037 104.77 137.302 101.175 141.262 96.3868C145.221 91.5982 147.713 85.8114 148.45 79.6958C149.186 73.5802 148.137 67.3856 145.424 61.8287C142.71 56.2718 138.443 51.5796 133.116 48.2949C127.79 45.0102 121.621 43.2673 115.323 43.2677Z" fill="white"/>
</svg>
